<svg xmlns="http://www.w3.org/2000/svg" viewBox="0 0 736.23 226.69"><g id="Layer_2" data-name="Layer 2"><g id="LOGO_HORIZONTAL" data-name="LOGO HORIZONTAL"><path d="M217.19,68.05,212.1,56.38,81.22,113.47l35.86,15.29-57,15,135.19-9.34-49.82-21.24,52.62-23a87.84,87.84,0,1,1-53.48-59l9.06-23.79A113.29,113.29,0,0,0,9.51,158.63a113.29,113.29,0,0,0,209.29-3.89A112.57,112.57,0,0,0,217.19,68.05Z"/><path d="M284.2,72.85a20,20,0,0,1,12.93,5.27l1.07,1L307.4,68l-1-.88c-5.59-5-14.07-8.07-22.12-8.07-17.11,0-30,12-30,27.79s12.51,27.93,29.12,27.93a41.94,41.94,0,0,0,22.37-7l.59-.41V85H292.16v0H279.79l12.37,4.69v9.21a20.11,20.11,0,0,1-7.81,2c-7.88,0-13.82-6.07-13.82-14.11S276.41,72.85,284.2,72.85Z"/><path d="M346.37,91c0,6.15-3.48,10-9.07,10-5.74,0-9.45-3.91-9.45-10V59.48h-16V91c0,14.45,9.95,23.78,25.34,23.78,15.21,0,25-9.33,25-23.78V59.48H346.37Z"/><polygon points="404.58 88.73 382.7 59.48 368.98 59.48 368.98 114.16 384.14 114.16 384.14 84.98 405.94 114.16 419.66 114.16 419.66 59.48 404.58 59.48 404.58 88.73"/><path d="M451,59.48H427.27v54.68h23.19c17.36,0,29.49-11.24,29.49-27.34S468,59.48,451,59.48Zm.29,41.38h-8V72.78h7.44c7.7,0,13.08,5.8,13.08,14.11S458.62,100.86,451.27,100.86Z"/><polygon points="500.12 93.32 524.88 93.32 524.88 80.17 500.12 80.17 500.12 72.63 527.55 72.63 527.55 59.48 484.15 59.48 484.15 114.16 528.37 114.16 528.37 101.01 500.12 101.01 500.12 93.32"/><path d="M581.69,79c0-12.38-8.37-19.48-23-19.48H534.13v54.68h16V99.55h8.16L566,114.16h18.34l-11.46-18C578.64,92.68,581.69,86.77,581.69,79Zm-23,7.44H550.1V72.63h8.62c5.09,0,7.67,2.28,7.67,6.77S563.81,86.4,558.72,86.4Z"/><path d="M608,72.33c4,0,10.7,2.2,15.91,5.23l1.3.75,6.14-12.75-1-.67a40.32,40.32,0,0,0-21.22-6c-13.41,0-22.08,6.69-22.08,17,0,11.83,10.54,14.71,18.24,16.82,5.73,1.57,9.2,2.71,9.2,5.28,0,2.73-3.36,3.14-5.36,3.14-5.33,0-13-3.21-17.85-7.45L590,92.54l-6.42,12.74.86.7A39.94,39.94,0,0,0,609,114.6c13.46,0,22.15-6.77,22.15-17.25,0-12.14-10.65-15.19-18.43-17.42-5.61-1.6-9-2.75-9-5.2C603.71,72.64,606.42,72.33,608,72.33Z"/><polygon points="651.54 93.32 676.31 93.32 676.31 80.17 651.54 80.17 651.54 72.63 678.98 72.63 678.98 59.48 635.57 59.48 635.57 114.16 679.79 114.16 679.79 101.01 651.54 101.01 651.54 93.32"/><polygon points="721.15 59.48 721.15 88.74 699.27 59.48 685.55 59.48 685.55 114.16 700.71 114.16 700.71 84.98 722.5 114.16 736.23 114.16 736.23 59.48 721.15 59.48"/><path d="M312.26,160.66V140.74H317v19.72c0,7.76,3.36,11.27,9.32,11.27s9.37-3.51,9.37-11.27V140.74h4.58v19.92c0,10.16-5.25,15.52-14,15.52S312.26,170.82,312.26,160.66Z"/><path d="M386.78,140.74v35H382.9L363,149.65v26.13h-4.73v-35h3.88l19.86,26.13V140.74Z"/><path d="M405.09,140.74h4.73v35h-4.73Z"/><path d="M457.21,140.74l-14.51,35H438l-14.56-35h5.1l11.92,28.78,12-28.78Z"/><path d="M495,171.43v4.35h-24v-35h23.36v4.36H475.65v10.76h16.6v4.25h-16.6v11.32Z"/><path d="M532.62,175.78,525.48,165c-.67,0-1.38.1-2.08.1h-8.19v10.66h-4.73v-35H523.4c8.6,0,13.8,4.61,13.8,12.22,0,5.4-2.64,9.3-7.28,11.06l7.85,11.76ZM532.48,153c0-5-3.17-7.86-9.23-7.86h-8v15.76h8C529.31,160.86,532.48,158,532.48,153Z"/><path d="M550.74,171.77l1.75-3.9a16.49,16.49,0,0,0,10.92,4.06c5.72,0,8.18-2.36,8.18-5.41,0-8.56-20.05-3.15-20.05-16.17,0-5.4,4-10,12.68-10a18.66,18.66,0,0,1,10.64,3.11l-1.56,4a16.45,16.45,0,0,0-9.08-2.85c-5.63,0-8,2.5-8,5.55,0,8.56,20.05,3.21,20.05,16.07,0,5.35-4.07,10-12.82,10C558.35,176.18,553.39,174.38,550.74,171.77Z"/><path d="M592,140.74h4.73v35H592Z"/><path d="M621.76,145.1H610.41v-4.36h27.38v4.36H626.44v30.68h-4.68Z"/><path d="M667,163.67v12.11h-4.68V163.57l-13.15-22.83h5.06l10.59,18.47,10.65-18.47h4.68Z"/></g></g></svg>